<svg width="20" height="60" viewBox="0 0 20 60" fill="none" xmlns="http://www.w3.org/2000/svg">
<path d="M18.6267 9.14261L10.955 1.02398L10.4408 0.479512C10.3236 0.356275 10.1652 0.287109 10 0.287109C9.83488 0.287109 9.67644 0.356275 9.55927 0.479512L1.37334 9.14261C1.25329 9.26923 1.1584 9.42004 1.0943 9.58612C1.03019 9.75221 0.998152 9.93021 1.00008 10.1096C1.00802 10.8496 1.58975 11.4403 2.28863 11.4403H3.13243V18.2871H16.8676V11.4403H17.7293C18.0688 11.4403 18.3885 11.2994 18.6287 11.0451C18.747 10.9202 18.8407 10.7718 18.9045 10.6083C18.9682 10.4449 19.0007 10.2696 19 10.0928C19 9.73543 18.867 9.39697 18.6267 9.14261ZM11.1119 16.7735H8.88819V12.4851H11.1119V16.7735ZM15.4381 9.92672V16.7735H12.3826V11.9806C12.3826 11.516 12.0272 11.1397 11.5884 11.1397H8.41169C7.97291 11.1397 7.61752 11.516 7.61752 11.9806V16.7735H4.56194V9.92672H2.65593L10.002 2.15495L10.4607 2.64056L17.3461 9.92672H15.4381Z" fill="#C4C4C4"/>
<mask id="mask0_1001_524" style="mask-type:alpha" maskUnits="userSpaceOnUse" x="3" y="43" width="13" height="13">
<rect x="3.80933" y="43.8096" width="11.4286" height="11.4286" fill="#C4C4C4"/>
</mask>
<g mask="url(#mask0_1001_524)">
<path d="M9.89311 55.2381C10.4725 55.2381 11.0023 55.1289 11.4826 54.9105C11.9626 54.6924 12.3752 54.4008 12.7203 54.0358C13.0657 53.6707 13.3336 53.252 13.5241 52.7796C13.7145 52.3075 13.8098 51.8175 13.8098 51.3096V48.2143C13.8098 48.0477 13.7523 47.9069 13.6374 47.792C13.5222 47.6767 13.3812 47.6191 13.2145 47.6191C13.0479 47.6191 12.9071 47.6767 12.7922 47.792C12.6769 47.9069 12.6193 48.0477 12.6193 48.2143V50.9524H12.3812C11.9844 50.9524 11.6471 51.0913 11.3693 51.3691C11.0915 51.6469 10.9526 51.9842 10.9526 52.381H10.4764C10.4764 51.9048 10.6312 51.4862 10.9407 51.1253C11.2503 50.764 11.651 50.5516 12.1431 50.4881V45.3572C12.1431 45.1905 12.0857 45.0496 11.9707 44.9343C11.8555 44.8194 11.7145 44.762 11.5479 44.762C11.3812 44.762 11.2404 44.8194 11.1255 44.9343C11.0103 45.0496 10.9526 45.1905 10.9526 45.3572V49.0477H10.4764V44.4048C10.4764 44.2381 10.4188 44.0972 10.3036 43.982C10.1887 43.867 10.0479 43.8096 9.88121 43.8096C9.71454 43.8096 9.57375 43.867 9.45883 43.982C9.34359 44.0972 9.28597 44.2381 9.28597 44.4048V49.0477H8.80978V45.1191C8.80978 44.9524 8.75216 44.8115 8.63692 44.6962C8.522 44.5813 8.38121 44.5239 8.21454 44.5239C8.04787 44.5239 7.90708 44.5813 7.79216 44.6962C7.67692 44.8115 7.6193 44.9524 7.6193 45.1191V49.5239H7.14311V46.5477C7.14311 46.381 7.08565 46.24 6.97073 46.1248C6.85549 46.0099 6.71454 45.9524 6.54787 45.9524C6.38121 45.9524 6.24041 46.0099 6.12549 46.1248C6.01026 46.24 5.95264 46.381 5.95264 46.5477V51.3096C5.95264 51.8175 6.04994 52.3096 6.24454 52.7858C6.43883 53.262 6.71057 53.6807 7.05978 54.042C7.40899 54.4029 7.82375 54.6924 8.30407 54.9105C8.78407 55.1289 9.31375 55.2381 9.89311 55.2381Z" fill="#42A4DF"/>
</g>
<circle cx="10" cy="50" r="9.5" stroke="#42A4DF"/>
</svg>
