<svg width="17" height="135" viewBox="0 0 17 135" fill="none" xmlns="http://www.w3.org/2000/svg">
<path d="M11.2954 1.54524e-06C11.2332 7.05641e-05 11.1732 0.00807672 11.1123 0.0130116L9.3264 2.96081C11.4447 3.14443 12.4936 4.11705 12.8743 5.07486L12.2971 5.30421C12.0311 4.63507 11.3667 3.89539 9.80149 3.64175C10.4628 4.11498 10.959 4.66247 11.2139 5.32926L10.6336 5.55105C10.3623 4.84116 9.69741 4.23631 8.71026 3.69306C8.36303 3.83524 6.58414 4.56177 5.96832 4.77035C4.68646 5.20444 3.98827 6.08488 2.65603 7.63118L2.65151 7.63635L2.64685 7.64136C2.43075 7.87092 2.33992 8.07801 2.31908 8.22906C2.29824 8.38003 2.33578 8.47397 2.40218 8.54413C2.53497 8.68444 2.89145 8.77327 3.41917 8.41534L3.42176 8.41358L6.01138 6.73048L6.38595 7.224L4.61027 8.78763L1.363 11.7886C0.951333 12.1691 0.957993 12.5389 1.05414 12.6666C1.10224 12.7304 1.17488 12.7794 1.35033 12.7715C1.52578 12.7636 1.79709 12.6785 2.13649 12.446C3.16256 11.7433 4.11854 11.041 4.95764 10.1939L4.95581 10.1862L4.96847 10.183C4.97441 10.1771 4.98045 10.1712 4.98635 10.1653L4.99843 10.1754C5.11616 10.1444 5.2323 10.1077 5.34642 10.0654C5.55393 9.98786 5.77579 9.84651 5.80212 9.81079C5.8133 9.79561 5.87714 9.57982 5.88805 9.39137C5.89895 9.20291 5.88825 9.04268 5.88825 9.04268L6.50794 9.00017C6.50794 9.00017 6.52164 9.1948 6.50822 9.42722C6.49476 9.65961 6.48561 9.93058 6.30195 10.1795C6.10318 10.449 5.81247 10.5544 5.56373 10.6473C5.49168 10.674 5.41888 10.6987 5.34542 10.7213C4.50436 11.8492 3.43591 12.7082 2.44801 13.6031C2.10623 13.9127 1.96477 14.179 1.9333 14.3426C1.90179 14.5063 1.93792 14.5637 2.02254 14.6249C2.19171 14.7473 2.7529 14.7671 3.33383 14.2319C4.47313 13.1822 5.58461 12.1394 6.43409 10.8941L6.46211 10.9108C6.51194 10.8892 6.60736 10.8468 6.73691 10.7761C6.90842 10.6824 7.09453 10.5339 7.11941 10.4963C7.14305 10.4607 7.20683 10.2347 7.22598 10.0431C7.24513 9.85152 7.24365 9.69094 7.24365 9.69094L7.86475 9.68428C7.86475 9.68428 7.86696 9.87557 7.84404 10.105C7.82109 10.3343 7.7969 10.5986 7.63712 10.8396C7.4761 11.0825 7.23933 11.2096 7.03449 11.3213C6.97202 11.3554 6.9145 11.3844 6.86114 11.4103C6.29267 12.4425 5.47549 13.337 4.60526 14.273C4.41926 14.4731 4.38506 14.6252 4.39607 14.7324C4.40711 14.8397 4.46653 14.9315 4.58318 15.0039C4.81646 15.1489 5.26077 15.1718 5.66791 14.7516C6.13745 14.267 6.56274 13.7605 6.93317 13.2229C7.25403 12.6376 7.58022 12.0466 7.89122 11.4562L7.91137 11.4656C7.94167 11.4557 8.0463 11.4209 8.18286 11.3605C8.34081 11.2907 8.51422 11.1702 8.52978 11.1502C8.54486 11.1308 8.61847 10.9341 8.64701 10.7648C8.66434 10.6613 8.67655 10.557 8.68359 10.4523L9.3039 10.4864C9.3039 10.4864 9.29444 10.6607 9.25955 10.868C9.22463 11.0753 9.18894 11.3143 9.02026 11.5313C8.8511 11.749 8.6272 11.8432 8.43408 11.9286C8.40444 11.9417 8.37746 11.9525 8.34954 11.9639C8.10324 12.523 7.80518 13.0478 7.4653 13.5446C7.34203 13.7696 7.21601 13.9977 7.09785 14.2176C6.98907 14.42 6.98231 14.5664 7.00684 14.665C7.03141 14.7637 7.08684 14.8278 7.17007 14.87C7.33658 14.9545 7.63188 14.9452 7.89926 14.5728C9.88148 11.8123 12.2654 9.04175 13.3209 5.4283C13.3983 5.1633 13.5673 5.03279 13.7693 4.84527C13.9714 4.65778 14.2174 4.45645 14.4585 4.25667C14.6997 4.05686 14.9361 3.85843 15.1083 3.69106C15.2226 3.57994 15.2953 3.47113 15.3312 3.42144C15.2468 3.09267 15.1091 2.76348 14.9297 2.44648C14.5471 2.69215 14.1313 2.91809 13.798 3.10068C14.0111 2.58642 14.1405 2.04431 14.2259 1.4875C14.0469 1.29371 13.8538 1.11342 13.6482 0.94808C12.9153 0.35959 12.0596 -0.000861191 11.2954 1.54524e-06ZM5.55379 0.137832C5.52637 0.137417 5.49894 0.137532 5.47152 0.138177C5.02448 0.148599 4.47751 0.317972 3.95038 0.603123C3.66802 0.755862 3.39377 0.942351 3.14082 1.15027C3.22426 1.81416 3.35919 2.4609 3.61101 3.06865C3.18775 2.83675 2.63167 2.53486 2.17935 2.21144C1.99973 2.49434 1.87553 2.7817 1.82725 3.05523C1.84796 3.15109 1.94924 3.35525 2.13594 3.58198C2.33948 3.82914 2.62114 4.10531 2.91061 4.3728C3.20004 4.64031 3.49692 4.89976 3.73928 5.12838C3.80823 5.1934 3.87221 5.25168 3.9316 5.30814C4.47792 4.80344 5.04132 4.42843 5.76909 4.18199C6.25257 4.01825 7.70977 3.42869 8.26067 3.20472L6.45997 0.557605C6.25526 0.271142 5.9582 0.144044 5.55379 0.137832ZM13.8308 5.88673C13.6727 6.39053 13.4908 6.87753 13.2895 7.34982L14.2997 7.91012L14.3023 7.91167C14.8538 8.23185 15.2033 8.11828 15.3259 7.96903C15.3872 7.89438 15.4181 7.79814 15.3868 7.64895C15.3554 7.49973 15.2504 7.29947 15.0188 7.08558L15.0087 7.07623L14.9995 7.06605C14.5751 6.59831 14.1896 6.21125 13.8308 5.88673ZM12.9056 8.18713C12.4853 9.04596 12.0065 9.85704 11.499 10.6337C12.4286 11.7989 13.5974 12.7511 14.794 13.708C15.411 14.2013 15.9693 14.1424 16.1296 14.0085C16.2096 13.9415 16.2417 13.8817 16.1989 13.7206C16.156 13.5596 15.9963 13.3038 15.6337 13.0188C14.5372 12.157 13.3552 11.3408 12.4156 10.1967L12.8614 9.76683C13.7653 10.5656 14.7788 11.2064 15.8636 11.8429C16.2184 12.0511 16.495 12.117 16.6706 12.1126C16.8461 12.1083 16.9152 12.0543 16.9587 11.9873C17.0457 11.8532 17.0265 11.4838 16.5893 11.1331L13.1403 8.3663L12.9056 8.18713ZM11.1191 11.2023C10.9291 11.48 10.736 11.7556 10.5398 12.0289C10.737 12.3379 10.9356 12.6463 11.1328 12.9529C11.54 13.4633 11.9996 13.939 12.5019 14.3896C12.9374 14.7803 13.379 14.7263 13.6016 14.5654C13.713 14.485 13.7659 14.3893 13.7693 14.2816C13.7728 14.1738 13.7281 14.0245 13.5285 13.8379C12.6148 12.9834 11.7545 12.1651 11.1191 11.2023ZM10.1163 12.6114C9.90954 12.8932 9.70181 13.1743 9.49315 13.4548C9.75355 13.7596 10.0114 14.0634 10.2636 14.3672C10.5563 14.72 10.8515 14.7085 11.0117 14.6126C11.0918 14.5647 11.1426 14.497 11.1602 14.3968C11.1778 14.2967 11.1608 14.1512 11.0382 13.9568C10.9049 13.7455 10.7631 13.5266 10.6243 13.3107C10.4452 13.0848 10.2757 12.8515 10.1163 12.6114Z" fill="#C4C4C4"/>
<path d="M8 87C10.2094 87 12 85.2094 12 83C12 80.7906 10.2094 79 8 79C5.79063 79 4 80.7906 4 83C4 85.2094 5.79063 87 8 87ZM10.8 88H10.2781C9.58437 88.3188 8.8125 88.5 8 88.5C7.1875 88.5 6.41875 88.3188 5.72188 88H5.2C2.88125 88 1 89.8813 1 92.2V93.5C1 94.3281 1.67188 95 2.5 95H13.5C14.3281 95 15 94.3281 15 93.5V92.2C15 89.8813 13.1187 88 10.8 88Z" fill="#42A4DF"/>
<path d="M14.5 45H11.5V43.5C11.5 42.6675 10.8325 42 10 42H7C6.1675 42 5.5 42.6675 5.5 43.5V45H2.5C1.6675 45 1.0075 45.6675 1.0075 46.5L1 54.75C1 55.5825 1.6675 56.25 2.5 56.25H14.5C15.3325 56.25 16 55.5825 16 54.75V46.5C16 45.6675 15.3325 45 14.5 45ZM10 45H7V43.5H10V45Z" fill="#C4C4C4"/>
</svg>
